<?xml version="1.0" encoding="UTF-8" standalone="no" ?>
<!DOCTYPE svg PUBLIC "-//W3C//DTD SVG 1.1//EN" "http://www.w3.org/Graphics/SVG/1.1/DTD/svg11.dtd">
<svg xmlns="http://www.w3.org/2000/svg" xmlns:xlink="http://www.w3.org/1999/xlink" version="1.1" width="640" height="640" viewBox="0 0 640 640" xml:space="preserve">
<desc>Created with Fabric.js 5.3.0</desc>
<defs>
</defs>
<g transform="matrix(1.1482580233 0 0 1.1482580233 225.6335008444 320.4962267981)" id="CiQZmcKFQacBrHscwjfs3"  >
<path style="stroke: rgb(0,0,0); stroke-width: 1; stroke-dasharray: none; stroke-linecap: butt; stroke-dashoffset: 0; stroke-linejoin: miter; stroke-miterlimit: 4; fill: rgb(0,0,0); fill-rule: nonzero; opacity: 1;" vector-effect="non-scaling-stroke"  transform=" translate(-0.0000060855, -0.0000017674)" d="M 9.61664 -244.60607 C 6.68586 -230.58515999999997 18.81434 -212.31418 39.64154 -196.39987 C 41.35813 -195.0882 41.12645 -195.48257999999998 44.33946 -200.31574 C 47.55246 -205.1489 52.128080000000004 -204.65329 53.46194 -203.15398000000002 C 53.39358 -192.09883000000002 34.02173 -152.44581000000002 34.42579 -144.79828000000003 C 34.82986 -100.91222000000003 36.16369 -96.24135000000004 29.429949999999998 -90.42671000000004 C 76.92358999999999 106.11231999999995 12.320239999999998 140.89997999999997 4.956819999999997 134.75033999999997 C -2.4066100000000032 128.60069999999996 4.498789999999997 95.30825999999996 -0.4198400000000033 59.27896999999997 C -3.3308200000000032 43.64156999999997 -18.399700000000003 31.841349999999974 -18.258390000000006 23.320189999999975 C -18.117070000000005 14.799019999999976 -30.919130000000006 -23.819570000000027 -31.899450000000005 -23.409360000000028 C -32.879780000000004 -22.99915000000003 -22.266550000000006 17.48859999999997 -21.983860000000007 24.78656999999997 C -21.70117000000001 32.08453999999997 -12.084790000000007 43.46829999999997 -3.1223200000000055 60.33622999999997 C -0.2027100000000055 75.52803999999998 0.05708999999999431 101.33690999999997 -0.4198300000000055 118.52399999999997 C -71.96042 143.46820999999997 9.155239999999996 207.00577999999996 36.47541999999999 255.14305999999996 C 38.23843999999999 256.94282999999996 43.971959999999996 263.42950999999994 48.64604999999999 265.16565999999995 C 36.31470999999999 262.77324999999996 36.496619999999986 256.13089999999994 29.24913999999999 257.46595999999994 C 18.89759999999999 261.08226999999994 -92.74241 256.7348099999999 -105.08749000000003 276.84601999999995 C -162.30250000000004 273.52509 -169.84004000000004 281.13127999999995 -195.57889000000003 276.84601999999995 C -194.34805000000003 274.98500999999993 -186.88952000000003 266.99580999999995 -125.61866000000003 236.67468999999994 C -115.77918000000004 231.24058999999994 -112.28209000000004 226.75129999999993 -111.94253000000003 214.30055999999993 C -112.48798000000004 201.32209999999992 -110.01292000000004 150.93215999999993 -111.94253000000003 134.75033999999994 C -110.48014000000003 0.4961599999999464 -111.46883000000004 -67.96066000000008 -56.30792000000003 -181.9775400000001 C -42.04436000000003 -206.0791000000001 -18.65664000000003 -227.8951800000001 1.3204499999999655 -244.6060700000001 C 24.135259999999967 -263.0481000000001 14.186019999999965 -269.0135200000001 52.702679999999965 -275.2500900000001 C 77.64960999999997 -286.0668500000001 123.66260999999997 -263.7920400000001 130.80186999999995 -261.0406000000001 C 137.94111999999996 -258.2891600000001 149.05471999999995 -243.4782300000001 172.03731999999997 -208.5752800000001 C 185.81987999999996 -197.90545000000012 199.94371999999996 -177.69943000000012 194.30734999999996 -178.4267100000001 C 191.67736999999997 -178.7660600000001 178.93543999999997 -186.1406900000001 166.36401999999995 -189.7984200000001 C 188.63345999999996 -183.0655200000001 159.87539999999996 -210.0178400000001 129.50760999999994 -208.5752900000001 C 160.10606999999993 -201.5815500000001 180.73511999999994 -186.37995000000012 172.03731999999994 -188.0387100000001 C 158.07966999999994 -191.3196800000001 118.37410999999994 -192.4411900000001 98.64673999999994 -178.4267200000001 C 94.10128999999993 -182.6085400000001 72.67296999999994 -189.5796900000001 65.79358999999994 -203.1539900000001 C 60.83728999999994 -207.4975300000001 65.79358999999994 -211.8812600000001 65.79358999999994 -211.8812600000001 C 65.79358999999994 -211.8812600000001 79.94204999999994 -237.23409000000012 76.79913999999994 -246.8064900000001 C 73.65622999999994 -256.3788900000001 41.210889999999935 -270.9204900000001 25.172299999999936 -264.2231800000001 C 21.370519999999935 -260.72479000000016 12.938849999999936 -260.4995900000001 9.616649999999936 -244.60607000000013 z" stroke-linecap="round" />
</g>
<g transform="matrix(1.1482580233 0 0 1.1482580233 212.2788512766 375.1453937109)" id="n7jIBGEcDISmIEB7RGzTV"  >
<path style="stroke: rgb(0,0,0); stroke-width: 2; stroke-dasharray: none; stroke-linecap: butt; stroke-dashoffset: 0; stroke-linejoin: miter; stroke-miterlimit: 4; fill: rgb(255,255,255); fill-opacity: 0; fill-rule: nonzero; opacity: 1;" vector-effect="non-scaling-stroke"  transform=" translate(-0.0000034519, 0.0000054291)" d="M 110.52402 -228.24579 C 113.20858 -221.41202 109.00296999999999 -191.68544 110.52402 -184.68178 C 128.82359 -11.23517000000001 77.91837999999998 137.92095 76.8021 141.01643 C 74.60358 147.79157 100.21521 190.51786 95.02958 196.95770000000002 C 93.95651 199.06854 74.43484 222.09397 65.30440999999999 223.00646 C 47.84064999999999 211.14118 39.948229999999995 199.64415 30.48205999999999 210.73013 C -4.539670000000008 224.03833 -93.20881000000001 230.94844 -114.48978 227.25945000000002" stroke-linecap="round" />
</g>
<g transform="matrix(1.008627294 0 0 1.008627294 341.8439650733 620.1282528782)" id="UcmS41-ig2BKsljRWAEfN"  >
<path style="stroke: rgb(0,0,0); stroke-width: 1; stroke-dasharray: none; stroke-linecap: butt; stroke-dashoffset: 0; stroke-linejoin: miter; stroke-miterlimit: 4; fill: rgb(0,0,0); fill-rule: nonzero; opacity: 1;" vector-effect="non-scaling-stroke"  transform=" translate(0.0000124028, -0.0000030794)" d="M -23.89294 -15.65564 C -23.89294 -15.65564 -20.55961 -8.20772 -17.43461 -8.15564 C -14.30961 -8.10356 14.28414 -19.50981 25.273719999999997 -17.94731 C 39.596639999999994 -13.259810000000002 51.30865 0.6063399999999994 49.85705 1.8443599999999982 C 48.80386 2.883169999999998 33.86747 -3.520220000000002 25.27372 -0.2389700000000019 C 25.0133 1.167279999999998 31.546020000000002 5.619519999999998 30.48205 6.219359999999998 C 12.357050000000001 -3.5723100000000017 -18.89295 18.094359999999998 -31.39295 18.094359999999998 C -37.01795 18.094359999999998 -49.97896 8.452059999999998 -49.97896 8.452059999999998 C -49.97896 8.452059999999998 -43.26795 7.261019999999998 -23.89295 -15.655640000000004 z" stroke-linecap="round" />
</g>
<g transform="matrix(1.1423455128 0 0 1.1423455128 453.6570160457 453.7667692601)" id="APnEXzCzGAG1KVJk_ciCl"  >
<path style="stroke: rgb(0,0,0); stroke-width: 2; stroke-dasharray: none; stroke-linecap: butt; stroke-dashoffset: 0; stroke-linejoin: miter; stroke-miterlimit: 4; fill: rgb(255,255,255); fill-opacity: 0; fill-rule: nonzero; opacity: 1;" vector-effect="non-scaling-stroke"  transform=" translate(2.284e-7, -0.00000634)" d="M 35.11966 -160.73241 C 35.24253 -142.25454 22.417040000000004 -143.46049 22.417040000000004 -143.46049 C 22.417040000000004 -143.46049 -2.8265099999999954 -152.09314 -11.333509999999993 -137.69554 C -11.333509999999993 -137.69554 -31.239559999999994 -134.48378 -33.94226999999999 -121.85562999999999 C -34.34080999999999 -119.99346999999999 -36.38159999999999 -117.12454999999999 -33.94226999999999 -113.07406999999999 C -36.855779999999996 -106.89547999999999 -23.174319999999994 -97.931 -19.595519999999993 -94.37319 C -12.811929999999993 -87.62939 -11.278199999999993 -79.85643999999999 -11.333519999999993 -76.97957 C -11.502439999999993 -68.19479 -29.445569999999993 -37.17585999999999 -27.56694999999999 -5.84541999999999 C -25.688339999999993 25.48502000000001 -3.819069999999993 54.35502000000001 -3.819069999999993 54.35502000000001 C -3.819069999999993 54.35502000000001 -0.5855899999999927 108.68283000000001 -11.333509999999993 139.07855 C -15.856579999999994 149.42469 -28.564619999999994 141.08445 -27.566939999999992 153.17249 C -26.57210999999999 163.14905000000002 -11.35544999999999 161.44514 -3.8190599999999932 158.23844 C 0.9832400000000066 154.64545999999999 3.9539600000000066 152.93791 7.258740000000007 144.57447 C 12.328930000000007 131.74327 43.618700000000004 48.59952999999999 28.215200000000006 23.19637999999999" stroke-linecap="round" />
</g>
<g transform="matrix(1 0 0 1 597.7310369743 498.2342182865)" id="-RjwJdujGl3YljGfZ6KPp"  >
<path style="stroke: rgb(0,0,0); stroke-width: 1; stroke-dasharray: none; stroke-linecap: butt; stroke-dashoffset: 0; stroke-linejoin: miter; stroke-miterlimit: 4; fill: rgb(0,0,0); fill-rule: nonzero; opacity: 1;"  transform=" translate(-0.0000015922, 0.0000052041)" d="M -32.76196 -123.7624 C -24.274140000000003 -136.69227 -6.541310000000003 -132.32829 -11.303580000000004 -123.7624 C -35.410940000000004 -74.89424 82.02063999999999 19.953819999999993 15.896759999999997 116.84877999999999 C 2.1650199999999966 132.34616 -22.05027 138.82098 -23.662360000000003 121.89402999999999 C 62.54423999999999 23.04039999999999 -58.17674000000001 -87.45721 -32.76196 -123.76240000000001 z" stroke-linecap="round" />
</g>
<g transform="matrix(1 0 0 1 529.9964192782 580.0293152033)" id="GuWYx5coMi0_DJkPq61Np"  >
<path style="stroke: rgb(0,0,0); stroke-width: 2; stroke-dasharray: none; stroke-linecap: butt; stroke-dashoffset: 0; stroke-linejoin: miter; stroke-miterlimit: 4; fill: rgb(255,255,255); fill-opacity: 0; fill-rule: nonzero; opacity: 1;"  transform=" translate(0.000004097, 0.0000080465)" d="M -7.14362 -58.40992 C -82.30735 -63.76596 -11.19436 19.484359999999995 -18.49954 34.472030000000004 C -25.80471 49.459700000000005 -51.196839999999995 31.658830000000002 -49.13454 55.08934000000001 C -41.427080000000004 61.58437000000001 34.91095 57.226330000000004 34.91095 57.226330000000004 C 50.830349999999996 55.61424 49.20664 49.042910000000006 49.20664 49.042910000000006" stroke-linecap="round" />
</g>
<g transform="matrix(1 0 0 1 530.2585159905 450.6861233262)" id="eIzqgOzI-Hr4CB5GB6jnG"  >
<path style="stroke: rgb(0,0,0); stroke-width: 1; stroke-dasharray: none; stroke-linecap: butt; stroke-dashoffset: 0; stroke-linejoin: miter; stroke-miterlimit: 4; fill: rgb(0,0,0); fill-rule: nonzero; opacity: 1;"  transform=" translate(2.674e-7, -0.0000049984)" d="M -71.91784 -163.98547 C -71.91784 -163.98547 -58.50878 -160.45154 -46.60321 -160.75966 C -34.232519999999994 -178.7422 -42.49917 -183.05557 -37.717079999999996 -186.68394 C -32.93499 -190.31232 -29.749469999999995 -165.69123000000002 -30.078009999999995 -151.08711 C -25.226509999999998 -148.05088999999998 -11.452559999999995 -147.44675 -8.933379999999996 -142.62012 C -6.414199999999996 -137.79349 -12.746859999999996 -138.52073 -20.001269999999998 -131.7806 C -11.134769999999998 -107.30747 -18.993709999999997 -76.19700999999999 -20.001269999999998 -70.99288999999999 C -11.336279999999999 -32.740909999999985 67.68966 12.558020000000013 72.69394 72.81423000000001 C 83.34392 94.66022000000001 56.24496 167.07834000000003 49.20019 177.59769 C 42.15542 188.11704 6.170059999999999 188.0758 -20.001269999999998 185.85937 L -26.452879999999997 168.73196000000002 C -47.75955 158.35235 -55.37058 111.03611000000001 -50.38923 89.50220000000002 C -42.289609999999996 54.48830000000002 12.236980000000003 70.08318000000001 2.3033900000000003 64.75378000000002 C -41.08708 46.591990000000024 -55.09795 -26.27531999999998 -53.78067 -42.610059999999976 C -52.463390000000004 -58.94479999999997 -46.563810000000004 -58.88596999999997 -46.6032 -75.82914999999997 C -51.977850000000004 -86.65086999999997 -64.5539 -101.29396999999997 -64.33376 -107.50033999999997 C -64.11362 -113.70670999999996 -63.984559999999995 -147.74971999999997 -75.14364 -151.08709999999996 C -66.14143 -152.81156999999996 -71.91783000000001 -163.98544999999996 -71.91783000000001 -163.98544999999996 z" stroke-linecap="round" />
</g>
<g transform="matrix(1 0 0 1 553.9239708003 446.6729818335)" id="KHn2LY2KWrPJ9gV-2zsny"  >
<path style="stroke: rgb(0,0,0); stroke-width: 3; stroke-dasharray: none; stroke-linecap: butt; stroke-dashoffset: 0; stroke-linejoin: miter; stroke-miterlimit: 4; fill: rgb(255,255,255); fill-opacity: 0; fill-rule: nonzero; opacity: 1;"  transform=" translate(-0.0000015167, 0)" d="M -58.64817 -149.0331 C -44.13935 -112.76105999999999 -42.43237 -65.37495999999999 -42.43237 -65.37495999999999 C -32.55831 -3.755129999999987 64.97317000000001 -1.0928399999999812 58.323299999999996 149.03310000000002" stroke-linecap="round" />
</g>
<g transform="matrix(1 0 0 1 476.6427998089 609.380444607)" id="ZeI_LZwp7HZyFdAe8YiJ_"  >
<path style="stroke: rgb(0,0,0); stroke-width: 2; stroke-dasharray: none; stroke-linecap: butt; stroke-dashoffset: 0; stroke-linejoin: miter; stroke-miterlimit: 4; fill: rgb(255,255,255); fill-opacity: 0; fill-rule: nonzero; opacity: 1;"  transform=" translate(-0.0000023731, -0.0000064558)" d="M -21.0155 18.1918 C -21.0155 18.1918 -22.02406 30.454410000000003 -5.868039999999999 24.95782 C 10.287980000000003 19.46123 21.027929999999998 -26.37521 21.027929999999998 -26.37521" stroke-linecap="round" />
</g>
</svg>